<svg 
 xmlns="http://www.w3.org/2000/svg"
 xmlns:xlink="http://www.w3.org/1999/xlink"
 width="93px" height="69px">
<path fill-rule="evenodd"  fill="rgb(255, 255, 255)"
 d="M92.752,65.160 C92.414,65.686 91.794,65.962 91.175,65.859 C73.518,62.937 46.67,68.874 46.67,68.874 C45.771,68.956 45.456,68.932 45.177,68.804 C25.973,61.468 2.20,64.625 1.780,64.658 C1.138,64.745 0.508,64.431 0.196,63.867 C0.66,63.623 0.0,63.350 0.4,63.74 L0.4,11.373 C0.4,10.627 0.538,9.986 1.276,9.848 C3.374,9.459 5.492,9.190 7.621,9.41 L7.621,2.296 C7.620,1.441 8.317,0.746 9.178,0.744 C22.39,0.743 31.529,3.694 37.226,6.170 C41.572,8.59 44.426,9.951 45.804,10.966 C49.93,8.868 52.566,7.69 56.179,5.591 C62.592,2.938 72.613,0.56 83.938,0.749 C84.752,0.810 85.381,1.485 85.379,2.296 L85.379,6.258 C89.246,6.371 91.610,6.802 91.720,6.823 C92.459,6.960 92.995,7.601 92.995,8.348 L92.995,64.285 C92.999,64.594 92.915,64.898 92.752,65.160 ZM7.621,56.763 L7.621,12.151 C6.114,12.264 4.612,12.440 3.129,12.678 L3.129,61.379 C7.489,60.960 11.868,60.783 16.248,60.849 C21.672,60.907 27.83,61.375 32.436,62.249 C21.18,58.378 9.344,58.316 9.183,58.316 C8.320,58.316 7.621,57.621 7.621,56.763 ZM44.176,13.634 C43.73,12.802 40.274,10.867 35.829,8.951 C30.661,6.724 22.192,4.86 10.746,3.863 L10.746,55.250 C14.721,55.423 18.680,55.859 22.596,56.560 C31.329,58.117 38.570,60.733 44.176,64.349 L44.176,13.634 ZM82.254,3.763 C64.689,3.28 50.440,11.646 47.300,13.706 L47.300,64.637 C54.944,60.340 63.289,57.413 71.953,55.988 C75.356,55.421 78.803,55.140 82.254,55.153 L82.254,3.763 ZM89.869,9.692 C88.875,9.571 87.334,9.425 85.379,9.364 L85.379,56.763 C85.379,56.806 85.377,56.850 85.373,56.892 C85.302,57.747 84.547,58.381 83.687,58.310 C83.644,58.307 79.145,57.962 72.342,59.70 C66.595,60.21 60.990,61.668 55.648,63.973 C64.881,62.547 78.663,61.57 89.869,62.527 L89.869,9.692 ZM54.371,48.865 L52.337,46.508 C52.793,46.118 63.671,37.1 76.395,38.580 L76.7,41.661 C64.639,40.251 54.472,48.778 54.371,48.865 ZM54.371,39.785 L52.337,37.429 C52.793,37.40 63.671,27.921 76.395,29.502 L76.7,32.583 C64.639,31.173 54.472,39.700 54.371,39.785 ZM54.371,30.708 L52.337,28.351 C52.793,27.963 63.671,18.845 76.395,20.425 L76.7,23.505 C64.639,22.94 54.472,30.622 54.371,30.708 ZM54.370,21.631 L52.337,19.274 C52.793,18.884 63.671,9.765 76.395,11.346 L76.7,14.427 C64.674,13.19 54.471,21.545 54.370,21.631 ZM15.496,43.171 L15.54,40.97 C26.110,38.530 39.826,46.10 40.404,46.329 L38.887,49.42 C38.725,48.954 25.494,41.752 15.496,43.171 ZM15.496,34.92 L15.54,31.19 C26.110,29.451 39.826,36.932 40.404,37.251 L38.887,39.965 C38.725,39.876 25.494,32.674 15.496,34.92 ZM15.496,25.15 L15.54,21.941 C26.110,20.372 39.826,27.854 40.404,28.173 L38.887,30.887 C38.725,30.798 25.494,23.596 15.496,25.15 ZM15.496,15.936 L15.54,12.863 C26.109,11.293 39.826,18.776 40.404,19.95 L38.887,21.809 C38.725,21.720 25.493,14.518 15.496,15.936 Z"/>
</svg>