<svg 
 xmlns="http://www.w3.org/2000/svg"
 xmlns:xlink="http://www.w3.org/1999/xlink"
 width="28px" height="28px">
<path fill-rule="evenodd"  fill="rgb(0, 130, 111)"
 d="M27.100,16.686 C24.568,22.905 17.478,25.893 11.264,23.360 C10.302,22.953 9.431,22.410 8.626,21.794 L2.928,27.497 C2.268,28.157 1.198,28.157 0.537,27.497 L0.492,27.452 C0.167,26.791 0.167,25.720 0.492,25.60 L6.218,19.328 C4.725,17.288 3.850,14.805 3.849,12.167 C3.846,5.451 9.283,0.4 15.993,0.2 C17.617,0.0 19.225,0.325 20.720,0.959 C26.755,3.603 29.585,10.579 27.100,16.686 ZM15.993,3.449 C15.993,3.449 15.993,3.449 15.992,3.449 C11.185,3.449 7.289,7.348 7.289,12.159 C7.289,16.969 11.185,20.869 15.991,20.870 C20.798,20.870 24.695,16.971 24.695,12.160 C24.696,7.349 20.800,3.449 15.993,3.449 Z"/>
</svg>