<svg 
 xmlns="http://www.w3.org/2000/svg"
 xmlns:xlink="http://www.w3.org/1999/xlink"
 width="65px" height="83px">
<path fill-rule="evenodd"  fill="rgb(255, 255, 255)"
 d="M63.319,72.199 L52.556,72.199 C58.841,67.419 63.335,58.43 63.335,47.770 C63.335,27.673 48.46,20.222 42.822,18.281 L43.269,17.36 C43.419,16.621 43.402,16.173 43.203,15.774 C43.5,15.376 42.673,15.61 42.259,14.911 L40.882,14.414 L44.315,4.905 C44.630,4.42 44.182,3.96 43.320,2.781 L35.973,0.125 C35.558,0.23 35.111,0.7 34.713,0.191 C34.314,0.374 34.0,0.723 33.850,1.138 L30.417,10.647 L29.41,10.149 C28.627,9.999 28.179,10.16 27.781,10.215 C27.383,10.398 27.68,10.746 26.919,11.161 L17.251,37.963 C16.936,38.825 17.384,39.771 18.246,40.87 L19.141,40.418 L16.670,44.352 C16.405,44.783 16.338,45.297 16.505,45.779 C16.670,46.260 17.35,46.626 17.516,46.808 L27.764,50.508 C27.947,50.575 28.146,50.608 28.328,50.608 C28.627,50.608 28.925,50.525 29.191,50.359 C29.622,50.93 29.903,49.662 29.970,49.164 L30.584,44.551 L31.479,44.817 C31.661,44.883 31.860,44.916 32.43,44.916 C32.292,44.916 32.524,44.865 32.739,44.766 C33.137,44.583 33.453,44.235 33.601,43.821 L37.399,33.315 C40.284,33.864 47.267,36.137 47.267,45.165 C47.267,45.696 47.249,46.210 47.216,46.725 C46.985,50.907 43.254,55.968 38.958,55.968 L35.973,55.968 L19.158,55.968 L9.457,55.968 C8.545,55.968 7.799,56.715 7.799,57.628 C7.799,58.541 8.545,59.288 9.457,59.288 L16.571,59.288 L10.634,72.199 L2.624,72.199 C1.712,72.199 0.966,72.946 0.966,73.858 L0.966,81.326 C0.966,82.238 1.712,82.984 2.624,82.984 L63.319,82.984 C64.230,82.984 64.976,82.238 64.976,81.326 L64.976,73.858 C64.976,72.946 64.230,72.199 63.319,72.199 ZM36.421,3.793 L40.650,5.320 L37.781,13.269 L35.957,12.605 L33.553,11.742 L36.421,3.793 ZM26.968,46.626 L20.584,44.319 L22.342,41.514 L27.383,43.339 L26.968,46.626 ZM31.48,41.132 L29.439,40.551 L22.209,37.946 L22.209,37.946 L20.932,37.481 L29.472,13.800 L30.849,14.298 L30.849,14.298 L33.634,15.310 L39.604,17.451 L39.141,18.728 L39.141,18.728 L34.746,30.909 L34.746,30.909 L31.48,41.132 ZM50.533,46.908 C50.566,46.326 50.583,45.746 50.583,45.165 C50.583,35.241 43.602,31.225 38.543,30.130 L41.711,21.351 C46.287,22.993 60.19,29.449 60.19,47.753 C60.19,60.266 52.855,71.269 44.463,72.99 L38.561,59.270 L38.958,59.270 C45.210,59.303 50.219,52.765 50.533,46.908 ZM20.219,59.303 L34.928,59.303 L40.865,72.214 L14.282,72.214 L20.219,59.303 ZM61.661,79.667 L4.282,79.667 L4.282,75.517 L11.679,75.517 L11.695,75.517 L43.452,75.517 L43.468,75.517 L61.661,75.517 L61.661,79.667 Z"/>
</svg>