<svg 
 xmlns="http://www.w3.org/2000/svg"
 xmlns:xlink="http://www.w3.org/1999/xlink"
 width="91px" height="63px">
<path fill-rule="evenodd"  fill="rgb(255, 255, 255)"
 d="M71.189,5.957 C68.231,1.965 61.526,6.385 61.456,6.425 C61.452,6.427 61.448,6.430 61.444,6.433 C60.525,7.43 59.284,6.795 58.672,5.880 C58.60,4.965 58.309,3.729 59.228,3.120 C62.655,0.830 70.241,-2.25 74.397,3.588 C76.596,6.554 81.93,15.354 84.720,23.626 C82.951,22.329 81.7,21.286 78.944,20.530 C76.16,14.229 72.928,8.306 71.189,5.957 ZM73.785,23.273 C84.602,24.959 92.0,35.63 90.307,45.838 C88.613,56.614 78.472,63.983 67.653,62.296 C56.836,60.609 49.438,50.506 51.131,39.731 C47.457,38.885 43.636,38.885 39.961,39.731 C40.143,40.830 40.230,41.944 40.223,43.58 C40.145,53.888 31.270,62.605 20.399,62.527 C12.129,62.531 4.726,57.419 1.831,49.702 C-2.0,39.492 3.202,28.121 13.452,24.304 C23.701,20.488 35.117,25.671 38.948,35.880 C43.288,34.868 47.805,34.868 52.143,35.880 C55.436,27.91 64.481,21.823 73.785,23.273 ZM20.399,27.17 C11.662,27.28 4.583,34.80 4.573,42.781 C4.573,42.781 4.573,42.781 4.573,42.782 C4.574,51.489 11.659,58.546 20.400,58.546 C29.140,58.545 36.226,51.488 36.225,42.781 C36.225,34.75 29.139,27.17 20.399,27.17 ZM54.867,42.782 C54.868,51.489 61.953,58.546 70.694,58.546 C79.434,58.545 86.519,51.488 86.519,42.781 C86.519,34.75 79.433,27.17 70.693,27.17 C61.956,27.28 54.877,34.80 54.867,42.781 C54.867,42.781 54.867,42.781 54.867,42.782 ZM29.637,6.425 C29.527,6.355 22.831,2.5 19.903,5.957 C18.164,8.306 15.77,14.229 12.148,20.530 C10.86,21.286 8.142,22.329 6.372,23.626 C10.0,15.354 14.497,6.554 16.685,3.587 C20.853,-2.25 28.438,0.820 31.865,3.120 C31.870,3.123 31.874,3.125 31.879,3.128 C32.792,3.745 33.32,4.983 32.412,5.893 C31.793,6.803 30.550,7.41 29.637,6.425 Z"/>
</svg>