<svg xmlns="http://www.w3.org/2000/svg" viewBox="0 0 210.9 266.4"><defs><style>.cls-1{fill:#00816e;}</style></defs><g id="Warstwa_2" data-name="Warstwa 2"><g id="Warstwa_1-2" data-name="Warstwa 1"><path class="cls-1" d="M79,187.33V115.08h37.83a49,49,0,0,1,11.6,1,19.34,19.34,0,0,1,7.15,3.54,16.19,16.19,0,0,1,5,6.13,18.17,18.17,0,0,1,1.76,8,16,16,0,0,1-3.39,10.45,17.64,17.64,0,0,1-9.81,5.71c5,1,8.72,2.93,11.29,5.85s3.84,6.73,3.84,11.45c0,6.58-2.33,11.56-7,15s-11.4,5.12-20.36,5.12Zm22.16-15.91h11.68a9.77,9.77,0,0,0,6.16-1.74,5.78,5.78,0,0,0,2.22-4.82,6,6,0,0,0-2.22-4.92,9.77,9.77,0,0,0-6.16-1.75H101.15Zm0-28.69h11.34a8.64,8.64,0,0,0,5.54-1.58,6,6,0,0,0,0-8.89,8.64,8.64,0,0,0-5.54-1.58H101.15Zm52.09,44.6V115.08h23.9v55.47h30.43v16.78ZM44.41,0,33.2,19.2h9.34l-.23.2L13.18,44.18H42.67l-.28.2L0,75.19H42.7v.11l-.08,112.17,24.58,0V114.78H48.86V75.16h162L56.35,44.43l-1.13-.23h104.1L53.09,19.54l-1-.22h33.6ZM39.65,15.61l6.29-11h0l0,0,0-.09.1,0,0,0,23.39,11,.2.1.46.21H39.51l.1-.17ZM11.22,71.49l35-25.38h0l0,0h.07L173.18,71.3l.49.1,1.11.22h-1.63l-161.83.16h-.5l.28-.2Z"/><path class="cls-1" d="M42.89,194.67h13.8v3.88H48.5v3.16h7v3.64h-7v7.38H42.89Z"/><path class="cls-1" d="M59,203.71a8.54,8.54,0,0,1,9.32-9.34c3,0,5.32.8,7,2.42a9.1,9.1,0,0,1,2.44,6.78,11.11,11.11,0,0,1-1.07,5.19,7.54,7.54,0,0,1-3.08,3.15,10.16,10.16,0,0,1-5,1.13,11.65,11.65,0,0,1-5.05-1A7.63,7.63,0,0,1,60.23,209,10.27,10.27,0,0,1,59,203.71Zm5.58,0a6.05,6.05,0,0,0,1,3.93,3.84,3.84,0,0,0,5.54,0q1-1.17,1-4.2a5.53,5.53,0,0,0-1-3.72,3.5,3.5,0,0,0-2.79-1.18,3.39,3.39,0,0,0-2.71,1.2A6.06,6.06,0,0,0,64.57,203.74Z"/><path class="cls-1" d="M80.78,212.73V194.67h9.3a13.31,13.31,0,0,1,4,.45,4.2,4.2,0,0,1,2.21,1.64,5.06,5.06,0,0,1,.83,2.93,5,5,0,0,1-.64,2.59,4.89,4.89,0,0,1-1.76,1.77,7.06,7.06,0,0,1-2,.71,5.37,5.37,0,0,1,1.45.67,5,5,0,0,1,.9.95,7.59,7.59,0,0,1,.78,1.12l2.7,5.23H92.23l-3-5.52a4.17,4.17,0,0,0-1-1.39,2.34,2.34,0,0,0-1.37-.42h-.49v7.33ZM86.38,202h2.35a7.92,7.92,0,0,0,1.48-.25,1.49,1.49,0,0,0,.91-.56,1.72,1.72,0,0,0,.35-1.05,1.66,1.66,0,0,0-.56-1.34,3.34,3.34,0,0,0-2.08-.47H86.38Z"/><path class="cls-1" d="M100.31,194.67h15v3.86H105.9v2.87h8.69v3.68H105.9v3.56h9.64v4.09H100.31Z"/><path class="cls-1" d="M117.57,206.76l5.31-.34a4,4,0,0,0,.7,2,2.92,2.92,0,0,0,2.46,1.1,2.73,2.73,0,0,0,1.84-.56,1.61,1.61,0,0,0,0-2.56,7.31,7.31,0,0,0-2.85-1,12.16,12.16,0,0,1-5.24-2.19,4.43,4.43,0,0,1-1.57-3.49,4.72,4.72,0,0,1,.8-2.63,5.4,5.4,0,0,1,2.43-2,11.39,11.39,0,0,1,4.44-.7,9.07,9.07,0,0,1,5.28,1.28,5.58,5.58,0,0,1,2.16,4.1l-5.26.31a2.45,2.45,0,0,0-2.74-2.33,2.27,2.27,0,0,0-1.46.41,1.26,1.26,0,0,0-.49,1,1,1,0,0,0,.4.78,4.67,4.67,0,0,0,1.88.67,23.29,23.29,0,0,1,5.24,1.59,5.59,5.59,0,0,1,2.3,2,5.1,5.1,0,0,1,.72,2.68,5.75,5.75,0,0,1-1,3.2,6,6,0,0,1-2.69,2.22A10.72,10.72,0,0,1,126,213q-4.6,0-6.38-1.78A6.91,6.91,0,0,1,117.57,206.76Z"/><path class="cls-1" d="M135.49,194.67h17v4.46h-5.69v13.6h-5.58v-13.6h-5.69Z"/><path class="cls-1" d="M42.94,239.41V221.35h9.3a13.31,13.31,0,0,1,3.95.45,4.16,4.16,0,0,1,2.21,1.64,5.51,5.51,0,0,1,.19,5.52,5.05,5.05,0,0,1-1.76,1.77,6.94,6.94,0,0,1-2,.71,5.31,5.31,0,0,1,1.46.67,5.57,5.57,0,0,1,.89.94,6.85,6.85,0,0,1,.78,1.13l2.7,5.23H54.4l-3-5.52a4,4,0,0,0-1-1.39,2.31,2.31,0,0,0-1.36-.42h-.5v7.33Zm5.6-10.74H50.9a8.18,8.18,0,0,0,1.48-.25,1.47,1.47,0,0,0,.9-.56,1.72,1.72,0,0,0,.35-1.05,1.65,1.65,0,0,0-.55-1.34A3.31,3.31,0,0,0,51,225H48.54Z"/><path class="cls-1" d="M62.48,221.35h15v3.86H68.07v2.87h8.68v3.68H68.07v3.56H77.7v4.09H62.48Z"/><path class="cls-1" d="M79.73,233.44,85,233.1a4,4,0,0,0,.7,2,3,3,0,0,0,2.47,1.1,2.75,2.75,0,0,0,1.84-.56,1.67,1.67,0,0,0,.64-1.3,1.66,1.66,0,0,0-.61-1.26,7.21,7.21,0,0,0-2.86-1,12,12,0,0,1-5.23-2.2,4.37,4.37,0,0,1-1.58-3.48,4.7,4.7,0,0,1,.81-2.63,5.25,5.25,0,0,1,2.42-1.95,11.37,11.37,0,0,1,4.44-.71,9.06,9.06,0,0,1,5.28,1.29,5.56,5.56,0,0,1,2.16,4.1l-5.26.3a2.45,2.45,0,0,0-2.73-2.32,2.22,2.22,0,0,0-1.47.41,1.25,1.25,0,0,0-.49,1,1,1,0,0,0,.41.78,4.43,4.43,0,0,0,1.87.66,23.55,23.55,0,0,1,5.24,1.6,5.52,5.52,0,0,1,2.3,2,5.09,5.09,0,0,1,.72,2.67,5.75,5.75,0,0,1-1,3.21A6.07,6.07,0,0,1,92.47,239a10.94,10.94,0,0,1-4.35.76q-4.61,0-6.38-1.78A7,7,0,0,1,79.73,233.44Z"/><path class="cls-1" d="M98.91,221.35h15v3.86H104.5v2.87h8.68v3.68H104.5v3.56h9.63v4.09H98.91Z"/><path class="cls-1" d="M128.24,236.43H121.9l-.88,3h-5.69l6.78-18.06h6.09L135,239.41h-5.84Zm-1.16-3.91-2-6.49-2,6.49Z"/><path class="cls-1" d="M136.83,239.41V221.35h9.3a13.38,13.38,0,0,1,4,.45,4.18,4.18,0,0,1,2.2,1.64,5,5,0,0,1,.84,2.93,5.1,5.1,0,0,1-.64,2.59,5.17,5.17,0,0,1-1.77,1.77,7,7,0,0,1-1.95.71,5.37,5.37,0,0,1,1.45.67,5.57,5.57,0,0,1,.89.94,6.85,6.85,0,0,1,.78,1.13l2.7,5.23h-6.3l-3-5.52a4.32,4.32,0,0,0-1-1.39,2.36,2.36,0,0,0-1.37-.42h-.49v7.33Zm5.61-10.74h2.35a8,8,0,0,0,1.48-.25,1.44,1.44,0,0,0,.9-.56,1.84,1.84,0,0,0-.2-2.39,3.29,3.29,0,0,0-2.08-.47h-2.45Z"/><path class="cls-1" d="M168,232l4.89,1.48a9.11,9.11,0,0,1-1.55,3.43,6.73,6.73,0,0,1-2.63,2.08,9.81,9.81,0,0,1-4,.71,11.6,11.6,0,0,1-4.81-.86,7.6,7.6,0,0,1-3.22-3,10.2,10.2,0,0,1-1.36-5.51q0-4.49,2.39-6.89a10.83,10.83,0,0,1,12.1-1,8.07,8.07,0,0,1,2.9,4.24l-4.92,1.1a4.1,4.1,0,0,0-.54-1.21,3.43,3.43,0,0,0-5.57.2,6.45,6.45,0,0,0-.77,3.55c0,2,.31,3.37.92,4.12a3.6,3.6,0,0,0,5,.21A5.56,5.56,0,0,0,168,232Z"/><path class="cls-1" d="M175.57,221.35h5.58v6.32h6.1v-6.32h5.6v18.06h-5.6v-7.3h-6.1v7.3h-5.58Z"/><path class="cls-1" d="M43.09,248h5.59v18.06H43.09Z"/><path class="cls-1" d="M52.72,248h5.21l6.8,10V248H70v18.06H64.73L58,256.17v9.92H52.72Z"/><path class="cls-1" d="M72.72,260.11l5.31-.33a4.13,4.13,0,0,0,.7,2,3,3,0,0,0,2.47,1.1,2.75,2.75,0,0,0,1.84-.56,1.69,1.69,0,0,0,.64-1.3,1.66,1.66,0,0,0-.61-1.26,7,7,0,0,0-2.86-1,12.1,12.1,0,0,1-5.23-2.2A4.41,4.41,0,0,1,73.4,253a4.7,4.7,0,0,1,.81-2.63,5.25,5.25,0,0,1,2.42-1.95,11.37,11.37,0,0,1,4.44-.71A9.06,9.06,0,0,1,86.35,249a5.56,5.56,0,0,1,2.16,4.1l-5.26.3a2.45,2.45,0,0,0-2.73-2.32,2.22,2.22,0,0,0-1.47.41,1.28,1.28,0,0,0-.49,1,1,1,0,0,0,.41.78,4.43,4.43,0,0,0,1.87.66,23.37,23.37,0,0,1,5.24,1.6,5.45,5.45,0,0,1,2.3,2,5.09,5.09,0,0,1,.72,2.67,5.7,5.7,0,0,1-1,3.2,6,6,0,0,1-2.68,2.23,10.94,10.94,0,0,1-4.35.76c-3.07,0-5.2-.6-6.38-1.78A7,7,0,0,1,72.72,260.11Z"/><path class="cls-1" d="M90.64,248h17v4.46h-5.69v13.6H96.33v-13.6H90.64Z"/><path class="cls-1" d="M110.35,248h5.59v18.06h-5.59Z"/><path class="cls-1" d="M118.68,248h17v4.46H130v13.6h-5.58v-13.6h-5.69Z"/><path class="cls-1" d="M149.91,248h5.57v10.76a9.11,9.11,0,0,1-.5,3,6.49,6.49,0,0,1-1.56,2.49,6.14,6.14,0,0,1-2.24,1.49,11.25,11.25,0,0,1-3.9.61,25.4,25.4,0,0,1-2.88-.19,7.48,7.48,0,0,1-2.6-.73,6.66,6.66,0,0,1-1.92-1.56,5.73,5.73,0,0,1-1.19-2.08,10.94,10.94,0,0,1-.52-3V248h5.57v11a3.16,3.16,0,0,0,.82,2.31,3.52,3.52,0,0,0,4.53,0,3.1,3.1,0,0,0,.82-2.32Z"/><path class="cls-1" d="M157.91,248h17v4.46h-5.69v13.6H163.6v-13.6h-5.69Z"/><path class="cls-1" d="M177.38,248h15v3.86H183v2.87h8.68v3.68H183V262h9.63v4.09H177.38Z"/></g></g></svg>