<svg xmlns="http://www.w3.org/2000/svg" viewBox="0 0 270.48 240"><defs><style>.cls-1{fill:#206b50;}</style></defs><g id="Warstwa_2" data-name="Warstwa 2"><g id="Warstwa_1-2" data-name="Warstwa 1"><path class="cls-1" d="M101.31,239.82v-92.5h48.51c6.52,0,11.47.45,14.88,1.34a25.1,25.1,0,0,1,9.17,4.53,20.75,20.75,0,0,1,6.38,7.84,23.35,23.35,0,0,1,2.26,10.25c0,5.37-1.44,9.84-4.35,13.37s-7.1,6-12.58,7.31q9.55,1.9,14.48,7.49T185,214.12q0,12.63-8.91,19.15T150,239.82Zm28.41-20.37h15c3.36,0,6-.74,7.9-2.22a7.39,7.39,0,0,0,2.86-6.18,7.58,7.58,0,0,0-2.86-6.29c-1.9-1.49-4.54-2.24-7.9-2.24h-15Zm0-36.73h14.55c3,0,5.4-.67,7.1-2a7.66,7.66,0,0,0,0-11.38c-1.7-1.35-4.05-2-7.1-2H129.72Zm66.81,57.1v-92.5h30.65v71h39v21.48ZM57,0,42.58,24.58h12l-.3.26L16.9,56.55H54.72l-.36.26L0,96.26H54.76v.14L54.66,240l31.52-.06v-93H62.67V96.22H270.48L72.26,56.88l-1.44-.29H204.33L68.09,25l-1.23-.28h43.08Zm-6.1,20L58.92,5.91h0l0,0L59,5.75l.12,0,0,0,30,14.07.25.12.59.27H50.67l.12-.21ZM14.39,91.52,59.3,59h0l0,0h.09L222.11,91.28l.62.12,1.43.29h-2.09L14.51,91.9h-.64l.36-.27Z"/></g></g></svg>