<svg xmlns="http://www.w3.org/2000/svg" viewBox="0 0 301.06 68.02"><defs><style>.cls-1{fill:#164194;}.cls-2{fill:#ffed00;}.cls-3{fill:#1d1d1b;}</style></defs><g id="Warstwa_2" data-name="Warstwa 2"><g id="warstwa_1-2" data-name="warstwa 1"><rect class="cls-1" x="199.03" width="102.04" height="68.02"/><polygon class="cls-2" points="247.87 14.83 250.03 13.25 252.18 14.83 251.36 12.29 253.55 10.71 250.85 10.71 250.03 8.14 249.21 10.71 246.5 10.71 248.69 12.29 247.87 14.83"/><polygon class="cls-2" points="236.73 17.82 238.88 16.24 241.04 17.82 240.22 15.28 242.4 13.7 239.71 13.7 238.88 11.13 238.06 13.71 235.37 13.7 237.55 15.28 236.73 17.82"/><polygon class="cls-2" points="230.73 19.3 229.9 21.88 227.21 21.88 229.39 23.45 228.57 25.99 230.73 24.42 232.88 25.99 232.06 23.45 234.25 21.88 231.56 21.88 230.73 19.3"/><polygon class="cls-2" points="227.74 35.54 229.89 37.12 229.07 34.58 231.26 33.01 228.56 33.01 227.74 30.43 226.91 33.01 224.22 33.01 226.4 34.58 225.58 37.12 227.74 35.54"/><polygon class="cls-2" points="231.56 44.16 230.72 41.59 229.91 44.16 227.21 44.16 229.39 45.74 228.57 48.28 230.72 46.7 232.88 48.28 232.06 45.74 234.25 44.16 231.56 44.16"/><polygon class="cls-2" points="239.72 52.33 238.9 49.76 238.07 52.34 235.37 52.33 237.56 53.91 236.75 56.45 238.9 54.87 241.05 56.45 240.23 53.91 242.42 52.33 239.72 52.33"/><polygon class="cls-2" points="250.85 55.29 250.03 52.71 249.21 55.29 246.5 55.29 248.69 56.86 247.87 59.4 250.03 57.83 252.19 59.4 251.36 56.86 253.55 55.29 250.85 55.29"/><polygon class="cls-2" points="261.98 52.33 261.15 49.76 260.32 52.34 257.64 52.33 259.82 53.91 259 56.45 261.15 54.87 263.31 56.45 262.49 53.91 264.69 52.33 261.98 52.33"/><polygon class="cls-2" points="270.15 44.16 269.32 41.59 268.5 44.16 265.81 44.16 267.99 45.74 267.16 48.28 269.32 46.7 271.48 48.28 270.66 45.74 272.85 44.16 270.15 44.16"/><polygon class="cls-2" points="275.8 32.97 273.1 32.97 272.29 30.39 271.45 32.97 268.77 32.97 270.95 34.55 270.12 37.09 272.29 35.51 274.44 37.09 273.62 34.55 275.8 32.97"/><polygon class="cls-2" points="267.17 25.95 269.32 24.39 271.48 25.95 270.66 23.41 272.85 21.85 270.15 21.85 269.32 19.26 268.5 21.85 265.81 21.85 268 23.41 267.17 25.95"/><polygon class="cls-2" points="261.18 11.13 260.37 13.71 257.67 13.7 259.86 15.28 259.04 17.82 261.2 16.24 263.34 17.82 262.53 15.28 264.71 13.7 262.01 13.7 261.18 11.13"/><path class="cls-3" d="M0,41.89v-17H10.92V27.5H3.09v4.2h7v2.58h-7v5h8.42v2.63Z"/><path class="cls-3" d="M24.2,41.22c-.57.15-1.31.3-2.23.46a18.73,18.73,0,0,1-3,.23,6.77,6.77,0,0,1-2.59-.44,4.31,4.31,0,0,1-1.67-1.23,4.75,4.75,0,0,1-.89-1.88A9.93,9.93,0,0,1,13.53,36V28.78h3V35.5a5.44,5.44,0,0,0,.6,3,2.35,2.35,0,0,0,2.1.88,11.36,11.36,0,0,0,1.14,0,5.46,5.46,0,0,0,.89-.12V28.78h3Z"/><path class="cls-3" d="M35.15,31.72a9.13,9.13,0,0,0-1-.26,8.25,8.25,0,0,0-1.51-.13,5.61,5.61,0,0,0-1,.1,5,5,0,0,0-.77.17V41.89h-3V29.66a17.24,17.24,0,0,1,2.14-.6,13.34,13.34,0,0,1,2.86-.28l.69,0,.79.1c.26,0,.51.09.76.15l.59.16Z"/><path class="cls-3" d="M49.19,35.13a8.19,8.19,0,0,1-.44,2.78A6,6,0,0,1,47.5,40a5.67,5.67,0,0,1-2,1.38,6.26,6.26,0,0,1-2.52.49,6.16,6.16,0,0,1-2.5-.49A5.73,5.73,0,0,1,38.59,40a6.35,6.35,0,0,1-1.27-2.13,8.19,8.19,0,0,1-.45-2.78,8.07,8.07,0,0,1,.45-2.76,6.36,6.36,0,0,1,1.28-2.12,5.67,5.67,0,0,1,1.95-1.36,6.67,6.67,0,0,1,5,0,5.53,5.53,0,0,1,2,1.36,6.32,6.32,0,0,1,1.26,2.12A8.07,8.07,0,0,1,49.19,35.13Zm-3,0a5,5,0,0,0-.82-3,2.93,2.93,0,0,0-4.59,0,5,5,0,0,0-.83,3,5.09,5.09,0,0,0,.83,3.07,2.9,2.9,0,0,0,4.59,0A5.09,5.09,0,0,0,46.15,35.13Z"/><path class="cls-3" d="M63.68,35.48a9.22,9.22,0,0,1-.38,2.7,6.31,6.31,0,0,1-1.1,2.11,4.66,4.66,0,0,1-1.78,1.37,5.64,5.64,0,0,1-2.41.5,5.81,5.81,0,0,1-1.67-.23,5.61,5.61,0,0,1-1.25-.49v5h-3v-17c.61-.16,1.35-.31,2.24-.46a16.73,16.73,0,0,1,2.8-.22,7.5,7.5,0,0,1,2.72.46,5.66,5.66,0,0,1,2.05,1.34,5.82,5.82,0,0,1,1.3,2.11A7.93,7.93,0,0,1,63.68,35.48Zm-3,.05a4.85,4.85,0,0,0-.89-3.1,3.53,3.53,0,0,0-2.89-1.1,8.71,8.71,0,0,0-.87,0,3.87,3.87,0,0,0-.89.16v7.34a4.6,4.6,0,0,0,1,.5,4.18,4.18,0,0,0,1.39.23,2.65,2.65,0,0,0,2.36-1.1A5.23,5.23,0,0,0,60.63,35.53Z"/><path class="cls-3" d="M65.89,35.23a8,8,0,0,1,.5-3,6.06,6.06,0,0,1,1.34-2.12,5.45,5.45,0,0,1,1.91-1.28,6.07,6.07,0,0,1,2.21-.43A5.28,5.28,0,0,1,76,30.08,7.1,7.1,0,0,1,77.47,35c0,.16,0,.35,0,.55s0,.39,0,.55H69a3.44,3.44,0,0,0,1.1,2.4,4.16,4.16,0,0,0,2.81.84,9.21,9.21,0,0,0,2-.19,8,8,0,0,0,1.42-.42l.39,2.43a5.2,5.2,0,0,1-.68.26,8.29,8.29,0,0,1-1,.24c-.37.08-.76.14-1.19.19a11.09,11.09,0,0,1-1.3.07,8,8,0,0,1-2.95-.5A5.54,5.54,0,0,1,67.48,40a5.72,5.72,0,0,1-1.2-2.11A8.7,8.7,0,0,1,65.89,35.23Zm8.61-1.32a3.76,3.76,0,0,0-.17-1.17,2.74,2.74,0,0,0-.5-1,2.28,2.28,0,0,0-.81-.63,2.52,2.52,0,0,0-1.14-.24,2.73,2.73,0,0,0-1.21.26,2.77,2.77,0,0,0-.87.68,2.89,2.89,0,0,0-.55.95A5.29,5.29,0,0,0,69,33.91Z"/><path class="cls-3" d="M84.74,28.48a7.41,7.41,0,0,1,2.48.37,4,4,0,0,1,1.61,1,4,4,0,0,1,.86,1.61,7.94,7.94,0,0,1,.25,2.07v7.79c-.46.09-1.15.21-2.07.35a21.12,21.12,0,0,1-3.13.21,9.24,9.24,0,0,1-2.11-.22A4.58,4.58,0,0,1,81,41a3.4,3.4,0,0,1-1.06-1.28,4.47,4.47,0,0,1-.38-1.94A3.66,3.66,0,0,1,80,35.9a3.47,3.47,0,0,1,1.17-1.24,5,5,0,0,1,1.7-.69,9.57,9.57,0,0,1,2-.21,9.43,9.43,0,0,1,1,.06,9.1,9.1,0,0,1,1.15.21v-.49a3.93,3.93,0,0,0-.12-1,2.13,2.13,0,0,0-.43-.83,2.15,2.15,0,0,0-.81-.55A3.58,3.58,0,0,0,84.44,31a12.33,12.33,0,0,0-1.89.14,8.45,8.45,0,0,0-1.39.35l-.37-2.41a11.45,11.45,0,0,1,1.64-.39A13,13,0,0,1,84.74,28.48ZM85,39.55a11.92,11.92,0,0,0,2.09-.14V36.12a5.54,5.54,0,0,0-.71-.15,6.58,6.58,0,0,0-1-.07,6.82,6.82,0,0,0-1,.07,3.15,3.15,0,0,0-.9.27,1.59,1.59,0,0,0-.65.55,1.52,1.52,0,0,0-.25.9,1.58,1.58,0,0,0,.66,1.46A3.42,3.42,0,0,0,85,39.55Z"/><path class="cls-3" d="M93.43,29.46A21.77,21.77,0,0,1,95.66,29a19,19,0,0,1,3-.22,6.91,6.91,0,0,1,2.62.43,3.91,3.91,0,0,1,1.68,1.2,4.54,4.54,0,0,1,.89,1.86,10.57,10.57,0,0,1,.26,2.4v7.22h-3V35.13a9.68,9.68,0,0,0-.14-1.75,3.2,3.2,0,0,0-.44-1.18,1.78,1.78,0,0,0-.84-.66,3.47,3.47,0,0,0-1.28-.21,9.68,9.68,0,0,0-1.18.07c-.41.05-.71.09-.91.13V41.89h-3Z"/><path class="cls-3" d="M119.92,41.91a8.15,8.15,0,0,1-3-.5A5.6,5.6,0,0,1,114.85,40a5.75,5.75,0,0,1-1.22-2.14,8.9,8.9,0,0,1-.39-2.7V24.53h3.12V34.86a6.77,6.77,0,0,0,.25,2,3.52,3.52,0,0,0,.74,1.34,3,3,0,0,0,1.13.76,4.18,4.18,0,0,0,1.46.25,4.27,4.27,0,0,0,1.47-.25,2.86,2.86,0,0,0,1.14-.76,3.39,3.39,0,0,0,.74-1.34,6.74,6.74,0,0,0,.26-2V24.53h3.12V35.16a8.59,8.59,0,0,1-.41,2.7A5.91,5.91,0,0,1,125,40a5.51,5.51,0,0,1-2.09,1.41A8.38,8.38,0,0,1,119.92,41.91Z"/><path class="cls-3" d="M130.32,29.46a22,22,0,0,1,2.24-.46,18.87,18.87,0,0,1,3-.22,7,7,0,0,1,2.63.43,4,4,0,0,1,1.68,1.2,4.52,4.52,0,0,1,.88,1.86,10,10,0,0,1,.26,2.4v7.22h-3V35.13a9.77,9.77,0,0,0-.13-1.75,3,3,0,0,0-.45-1.18,1.76,1.76,0,0,0-.83-.66,3.48,3.48,0,0,0-1.29-.21,9.68,9.68,0,0,0-1.18.07c-.41.05-.71.09-.91.13V41.89h-3Z"/><path class="cls-3" d="M147.85,25.29a1.71,1.71,0,0,1-.54,1.33,1.86,1.86,0,0,1-1.28.49,1.91,1.91,0,0,1-1.3-.49,1.71,1.71,0,0,1-.54-1.33,1.74,1.74,0,0,1,.54-1.35,1.86,1.86,0,0,1,1.3-.49,1.81,1.81,0,0,1,1.28.49A1.74,1.74,0,0,1,147.85,25.29Zm-.32,16.6h-3V29.05h3Z"/><path class="cls-3" d="M162.78,35.13a8.19,8.19,0,0,1-.45,2.78A6,6,0,0,1,161.08,40a5.67,5.67,0,0,1-2,1.38,6.26,6.26,0,0,1-2.52.49,6.16,6.16,0,0,1-2.5-.49A5.73,5.73,0,0,1,152.17,40a6.17,6.17,0,0,1-1.26-2.13,8,8,0,0,1-.46-2.78,7.84,7.84,0,0,1,.46-2.76,6.18,6.18,0,0,1,1.27-2.12,5.67,5.67,0,0,1,1.95-1.36,6.3,6.3,0,0,1,2.48-.48,6.44,6.44,0,0,1,2.5.48,5.49,5.49,0,0,1,1.95,1.36,6.32,6.32,0,0,1,1.26,2.12A8.07,8.07,0,0,1,162.78,35.13Zm-3.05,0a5,5,0,0,0-.82-3,2.93,2.93,0,0,0-4.59,0,5,5,0,0,0-.82,3,5.09,5.09,0,0,0,.82,3.07,2.9,2.9,0,0,0,4.59,0A5.09,5.09,0,0,0,159.73,35.13Z"/><path class="cls-3" d="M165.7,29.46a21.21,21.21,0,0,1,2.23-.46,19,19,0,0,1,3-.22,6.92,6.92,0,0,1,2.63.43,4,4,0,0,1,1.68,1.2,4.67,4.67,0,0,1,.89,1.86,10.59,10.59,0,0,1,.25,2.4v7.22h-3V35.13a9.77,9.77,0,0,0-.13-1.75,3.2,3.2,0,0,0-.44-1.18,1.83,1.83,0,0,0-.84-.66,3.48,3.48,0,0,0-1.29-.21,9.52,9.52,0,0,0-1.17.07c-.41.05-.72.09-.91.13V41.89h-3Z"/></g></g></svg>