<svg xmlns="http://www.w3.org/2000/svg" viewBox="0 0 302.24 68.02"><defs><style>.cls-1{fill:#164194;}.cls-2{fill:#ffed00;}.cls-3{fill:#1d1d1b;}</style></defs><g id="Warstwa_2" data-name="Warstwa 2"><g id="warstwa_1-2" data-name="warstwa 1"><rect class="cls-1" x="200.21" width="102.04" height="68.02"/><polygon class="cls-2" points="249.05 14.83 251.21 13.25 253.36 14.83 252.54 12.29 254.73 10.71 252.03 10.71 251.21 8.14 250.38 10.71 247.68 10.71 249.86 12.29 249.05 14.83"/><polygon class="cls-2" points="237.91 17.82 240.06 16.24 242.22 17.82 241.39 15.28 243.58 13.7 240.89 13.7 240.06 11.13 239.24 13.71 236.55 13.7 238.73 15.28 237.91 17.82"/><polygon class="cls-2" points="231.91 19.3 231.08 21.88 228.39 21.88 230.57 23.45 229.75 25.99 231.91 24.42 234.06 25.99 233.24 23.45 235.43 21.88 232.73 21.88 231.91 19.3"/><polygon class="cls-2" points="228.92 35.54 231.06 37.12 230.25 34.58 232.44 33.01 229.74 33.01 228.92 30.43 228.09 33.01 225.4 33.01 227.58 34.58 226.76 37.12 228.92 35.54"/><polygon class="cls-2" points="232.73 44.16 231.9 41.59 231.08 44.16 228.39 44.16 230.57 45.74 229.75 48.28 231.9 46.7 234.06 48.28 233.24 45.74 235.43 44.16 232.73 44.16"/><polygon class="cls-2" points="240.9 52.33 240.07 49.76 239.25 52.34 236.55 52.33 238.74 53.91 237.92 56.45 240.07 54.87 242.23 56.45 241.41 53.91 243.6 52.33 240.9 52.33"/><polygon class="cls-2" points="252.03 55.29 251.21 52.71 250.38 55.29 247.68 55.29 249.87 56.86 249.05 59.4 251.21 57.83 253.36 59.4 252.53 56.86 254.73 55.29 252.03 55.29"/><polygon class="cls-2" points="263.16 52.33 262.33 49.76 261.5 52.34 258.82 52.33 261 53.91 260.18 56.45 262.33 54.87 264.49 56.45 263.67 53.91 265.86 52.33 263.16 52.33"/><polygon class="cls-2" points="271.33 44.16 270.5 41.59 269.68 44.16 266.99 44.16 269.17 45.74 268.34 48.28 270.5 46.7 272.66 48.28 271.84 45.74 274.03 44.16 271.33 44.16"/><polygon class="cls-2" points="276.98 32.97 274.28 32.97 273.47 30.39 272.63 32.97 269.94 32.97 272.13 34.55 271.3 37.09 273.47 35.51 275.62 37.09 274.8 34.55 276.98 32.97"/><polygon class="cls-2" points="268.35 25.95 270.5 24.39 272.66 25.95 271.84 23.41 274.03 21.85 271.33 21.85 270.5 19.26 269.68 21.85 266.99 21.85 269.17 23.41 268.35 25.95"/><polygon class="cls-2" points="262.36 11.13 261.55 13.71 258.84 13.7 261.03 15.28 260.22 17.82 262.38 16.24 264.52 17.82 263.7 15.28 265.89 13.7 263.19 13.7 262.36 11.13"/><path class="cls-3" d="M6.68,41.91a8.19,8.19,0,0,1-3-.5A5.68,5.68,0,0,1,1.61,40,5.75,5.75,0,0,1,.39,37.86,8.9,8.9,0,0,1,0,35.16V24.53H3.12V34.86a6.42,6.42,0,0,0,.26,2,3.45,3.45,0,0,0,.73,1.34,3,3,0,0,0,1.13.76,4.18,4.18,0,0,0,1.46.24,4.28,4.28,0,0,0,1.47-.24,2.9,2.9,0,0,0,1.15-.76,3.45,3.45,0,0,0,.73-1.34,6.74,6.74,0,0,0,.26-2V24.53h3.12V35.16a8.59,8.59,0,0,1-.41,2.7A6,6,0,0,1,11.8,40a5.63,5.63,0,0,1-2.1,1.41A8.34,8.34,0,0,1,6.68,41.91Z"/><path class="cls-3" d="M17.09,29.46a20.31,20.31,0,0,1,5.27-.68,6.92,6.92,0,0,1,2.63.43,4,4,0,0,1,1.68,1.2,4.67,4.67,0,0,1,.89,1.86,10.59,10.59,0,0,1,.25,2.4v7.22h-3V35.13a9.77,9.77,0,0,0-.13-1.75,3.2,3.2,0,0,0-.44-1.18,1.83,1.83,0,0,0-.84-.66,3.48,3.48,0,0,0-1.29-.21A9.8,9.8,0,0,0,21,31.4c-.41.05-.71.09-.9.13V41.89h-3Z"/><path class="cls-3" d="M34.61,25.29a1.71,1.71,0,0,1-.54,1.33,1.85,1.85,0,0,1-1.27.49,1.92,1.92,0,0,1-1.31-.49A1.71,1.71,0,0,1,31,25.29a1.74,1.74,0,0,1,.54-1.35,1.87,1.87,0,0,1,1.31-.49,1.81,1.81,0,0,1,1.27.49A1.74,1.74,0,0,1,34.61,25.29Zm-.32,16.6h-3V29.05h3Z"/><path class="cls-3" d="M42.2,28.48a7.16,7.16,0,0,1,2.48.37,4,4,0,0,1,1.6,1,3.74,3.74,0,0,1,.86,1.61,7.52,7.52,0,0,1,.26,2.07v7.79c-.46.09-1.15.21-2.07.35a21.12,21.12,0,0,1-3.13.21,9.18,9.18,0,0,1-2.11-.22A4.63,4.63,0,0,1,38.45,41,3.37,3.37,0,0,1,37.4,39.7,4.33,4.33,0,0,1,37,37.76a3.66,3.66,0,0,1,.43-1.86,3.45,3.45,0,0,1,1.16-1.24A5,5,0,0,1,40.32,34a9.54,9.54,0,0,1,3.06-.15,9.1,9.1,0,0,1,1.15.21v-.49a3.93,3.93,0,0,0-.12-1,2.27,2.27,0,0,0-.43-.83,2.15,2.15,0,0,0-.81-.55A3.58,3.58,0,0,0,41.9,31a12.33,12.33,0,0,0-1.89.14,8.6,8.6,0,0,0-1.4.35l-.36-2.41a11.45,11.45,0,0,1,1.64-.39A13,13,0,0,1,42.2,28.48Zm.24,11.07a12,12,0,0,0,2.09-.14V36.12a5.54,5.54,0,0,0-.71-.15,6.58,6.58,0,0,0-1-.07,6.82,6.82,0,0,0-1,.07,3.22,3.22,0,0,0-.91.27,1.65,1.65,0,0,0-.65.55,1.89,1.89,0,0,0,.42,2.36A3.42,3.42,0,0,0,42.44,39.55Z"/><path class="cls-3" d="M56.61,41.89v-17H67.53V27.5H59.7v4.2h7v2.58h-7v5h8.42v2.63Z"/><path class="cls-3" d="M80.81,41.22c-.57.15-1.32.3-2.23.46a18.82,18.82,0,0,1-3,.23A6.73,6.73,0,0,1,73,41.47a4.24,4.24,0,0,1-1.67-1.23,4.77,4.77,0,0,1-.9-1.88A9.93,9.93,0,0,1,70.13,36V28.78h3V35.5a5.44,5.44,0,0,0,.6,3,2.35,2.35,0,0,0,2.1.88,11.36,11.36,0,0,0,1.14,0,5.62,5.62,0,0,0,.9-.12V28.78h3Z"/><path class="cls-3" d="M91.76,31.72a10.46,10.46,0,0,0-1-.26,8.33,8.33,0,0,0-1.51-.13,7.77,7.77,0,0,0-1.82.27V41.89h-3V29.66a17.45,17.45,0,0,1,2.15-.6,13.27,13.27,0,0,1,2.86-.28l.69,0,.78.1c.27,0,.52.09.77.15s.44.11.58.16Z"/><path class="cls-3" d="M105.8,35.13a8.44,8.44,0,0,1-.44,2.78A6.15,6.15,0,0,1,104.11,40a5.67,5.67,0,0,1-2,1.38,6.29,6.29,0,0,1-2.52.49,6.13,6.13,0,0,1-2.5-.49A5.63,5.63,0,0,1,95.2,40a6.19,6.19,0,0,1-1.27-2.13,8.19,8.19,0,0,1-.45-2.78,8.07,8.07,0,0,1,.45-2.76,6.2,6.2,0,0,1,1.28-2.12,5.67,5.67,0,0,1,2-1.36,6.27,6.27,0,0,1,2.48-.48,6.35,6.35,0,0,1,2.49.48,5.49,5.49,0,0,1,2,1.36,6.51,6.51,0,0,1,1.27,2.12A8.07,8.07,0,0,1,105.8,35.13Zm-3,0a5,5,0,0,0-.83-3A2.68,2.68,0,0,0,99.64,31a2.71,2.71,0,0,0-2.3,1.11,5.09,5.09,0,0,0-.82,3,5.15,5.15,0,0,0,.82,3.07,2.67,2.67,0,0,0,2.3,1.13,2.64,2.64,0,0,0,2.29-1.13A5.09,5.09,0,0,0,102.76,35.13Z"/><path class="cls-3" d="M120.28,35.48a8.9,8.9,0,0,1-.38,2.7,6.12,6.12,0,0,1-1.09,2.11A4.73,4.73,0,0,1,117,41.66a5.69,5.69,0,0,1-2.42.5,5.91,5.91,0,0,1-1.67-.23,6,6,0,0,1-1.25-.49v5h-3v-17A22.79,22.79,0,0,1,111,29a16.61,16.61,0,0,1,2.79-.22,7.51,7.51,0,0,1,2.73.46,5.75,5.75,0,0,1,2,1.34,6,6,0,0,1,1.3,2.11A8.16,8.16,0,0,1,120.28,35.48Zm-3,.05a4.79,4.79,0,0,0-.9-3.1,3.49,3.49,0,0,0-2.88-1.1,8.71,8.71,0,0,0-.87,0,4.05,4.05,0,0,0-.9.16v7.34a4.7,4.7,0,0,0,1,.5,4.16,4.16,0,0,0,1.38.23,2.67,2.67,0,0,0,2.37-1.1A5.23,5.23,0,0,0,117.24,35.53Z"/><path class="cls-3" d="M122.49,35.23a8,8,0,0,1,.51-3,6.19,6.19,0,0,1,1.33-2.12,5.58,5.58,0,0,1,1.92-1.28,6.07,6.07,0,0,1,2.21-.43,5.26,5.26,0,0,1,4.13,1.65A7.1,7.1,0,0,1,134.08,35c0,.16,0,.34,0,.55s0,.39,0,.55h-8.47a3.43,3.43,0,0,0,1.09,2.4,4.19,4.19,0,0,0,2.81.84,9.37,9.37,0,0,0,2-.19,8.49,8.49,0,0,0,1.41-.42l.39,2.43a4.5,4.5,0,0,1-.67.26,8.81,8.81,0,0,1-1,.24c-.37.08-.77.14-1.19.19a11.2,11.2,0,0,1-1.3.07,8,8,0,0,1-2.95-.5,5.66,5.66,0,0,1-2.06-1.4,5.72,5.72,0,0,1-1.2-2.11A8.4,8.4,0,0,1,122.49,35.23Zm8.62-1.32a4.09,4.09,0,0,0-.17-1.17,2.94,2.94,0,0,0-.51-1,2.28,2.28,0,0,0-.81-.63,2.52,2.52,0,0,0-1.14-.24,2.61,2.61,0,0,0-2.07.94,2.89,2.89,0,0,0-.55.95,4.29,4.29,0,0,0-.27,1.11Z"/><path class="cls-3" d="M135.43,46.45q-.31,0-.9-.06a4.25,4.25,0,0,1-1-.23l.4-2.43a4.46,4.46,0,0,0,1.3.17,1.64,1.64,0,0,0,1.45-.6,3.19,3.19,0,0,0,.41-1.81V29.05h3V41.54a5.06,5.06,0,0,1-1.19,3.71A4.6,4.6,0,0,1,135.43,46.45Zm4.93-21.16a1.71,1.71,0,0,1-.54,1.33,1.85,1.85,0,0,1-1.27.49,1.89,1.89,0,0,1-1.3-.49,1.71,1.71,0,0,1-.54-1.33,1.74,1.74,0,0,1,.54-1.35,1.85,1.85,0,0,1,1.3-.49,1.81,1.81,0,0,1,1.27.49A1.74,1.74,0,0,1,140.36,25.29Z"/><path class="cls-3" d="M146.89,39.46a3.86,3.86,0,0,0,1.72-.29,1,1,0,0,0,.54-1,1.26,1.26,0,0,0-.57-1.05,8.57,8.57,0,0,0-1.91-.91,16.06,16.06,0,0,1-1.48-.63,5.27,5.27,0,0,1-1.17-.77,3.09,3.09,0,0,1-.77-1.07,3.7,3.7,0,0,1-.28-1.53,3.34,3.34,0,0,1,1.3-2.79,5.55,5.55,0,0,1,3.53-1,10.84,10.84,0,0,1,2.16.21,10.48,10.48,0,0,1,1.55.41l-.54,2.4a8.05,8.05,0,0,0-1.25-.4,7.22,7.22,0,0,0-1.77-.19,3.09,3.09,0,0,0-1.47.31,1,1,0,0,0-.57.95,1.4,1.4,0,0,0,.11.56,1.22,1.22,0,0,0,.38.45,4,4,0,0,0,.71.42c.3.14.66.28,1.08.43a16.43,16.43,0,0,1,1.8.77,5,5,0,0,1,1.21.86,3,3,0,0,1,.7,1.1,4.25,4.25,0,0,1,.22,1.47A3.15,3.15,0,0,1,150.76,41a6.79,6.79,0,0,1-3.89.95,10.64,10.64,0,0,1-2.73-.28,12.58,12.58,0,0,1-1.44-.46l.51-2.48a12.73,12.73,0,0,0,1.58.52A8.4,8.4,0,0,0,146.89,39.46Z"/><path class="cls-3" d="M157.72,34.05l1.2-1.26c.43-.45.84-.9,1.25-1.35l1.17-1.3.94-1.09h3.52c-.82.91-1.69,1.86-2.59,2.84s-1.83,1.94-2.74,2.88A17.26,17.26,0,0,1,162,36.25c.54.58,1.07,1.2,1.58,1.85s1,1.31,1.42,2a18.38,18.38,0,0,1,1.1,1.82h-3.43c-.3-.51-.64-1-1-1.6s-.8-1.1-1.24-1.62-.89-1-1.35-1.49A12.8,12.8,0,0,0,157.72,36v5.9h-3V25.36l3-.49Z"/><path class="cls-3" d="M172.4,28.48a7.16,7.16,0,0,1,2.48.37,4.1,4.1,0,0,1,1.61,1,3.83,3.83,0,0,1,.85,1.61,7.52,7.52,0,0,1,.26,2.07v7.79c-.46.09-1.15.21-2.07.35a21.12,21.12,0,0,1-3.13.21,9.24,9.24,0,0,1-2.11-.22,4.63,4.63,0,0,1-1.64-.71,3.37,3.37,0,0,1-1.05-1.28,4.47,4.47,0,0,1-.38-1.94,3.66,3.66,0,0,1,.43-1.86,3.45,3.45,0,0,1,1.16-1.24,5.12,5.12,0,0,1,1.71-.69,9.57,9.57,0,0,1,2-.21,9.43,9.43,0,0,1,1,.06,9.1,9.1,0,0,1,1.15.21v-.49a3.93,3.93,0,0,0-.12-1,2.13,2.13,0,0,0-.43-.83,2.15,2.15,0,0,0-.81-.55A3.58,3.58,0,0,0,172.1,31a12.33,12.33,0,0,0-1.89.14,8.6,8.6,0,0,0-1.4.35l-.36-2.41a11.45,11.45,0,0,1,1.64-.39A13,13,0,0,1,172.4,28.48Zm.24,11.07a11.92,11.92,0,0,0,2.09-.14V36.12A5.54,5.54,0,0,0,174,36a6.58,6.58,0,0,0-1-.07,6.82,6.82,0,0,0-1,.07,3.06,3.06,0,0,0-.9.27,1.62,1.62,0,0,0-.66.55,1.89,1.89,0,0,0,.42,2.36A3.42,3.42,0,0,0,172.64,39.55Z"/></g></g></svg>